<svg xmlns="http://www.w3.org/2000/svg" xmlns:xlink="http://www.w3.org/1999/xlink" width="500" zoomAndPan="magnify" viewBox="0 0 375 374.999991" height="500" preserveAspectRatio="xMidYMid meet" version="1.2"><defs><clipPath id="bd21b0359e"><path d="M 100 107 L 277 107 L 277 268.5 L 100 268.5 Z M 100 107 "/></clipPath></defs><g id="30cd8ba7ba"><g clip-rule="nonzero" clip-path="url(#bd21b0359e)"><path style=" stroke:none;fill-rule:nonzero;fill:#181d2e;fill-opacity:1;" d="M 116.613281 268.246094 C 114.453125 268.246094 112.207031 267.832031 110.128906 266.917969 C 101.652344 263.34375 97.75 253.535156 101.320312 245.144531 L 146.195312 139.523438 C 146.945312 137.859375 147.859375 136.28125 149.105469 134.949219 L 149.519531 134.453125 C 153.261719 130.214844 158.910156 128.21875 164.480469 129.132812 C 170.046875 130.046875 174.785156 133.703125 177.109375 138.855469 L 199.050781 188.71875 L 243.925781 115.007812 C 246.582031 110.601562 251.152344 107.695312 256.304688 107.113281 C 261.457031 106.53125 266.527344 108.441406 270.101562 112.097656 L 271.179688 113.261719 C 274.089844 116.335938 275.75 120.324219 275.835938 124.5625 L 276.664062 184.644531 C 276.832031 193.785156 269.4375 201.347656 260.296875 201.515625 C 251.152344 201.679688 243.589844 194.285156 243.425781 185.144531 L 243.34375 179.742188 L 210.933594 233.011719 C 207.691406 238.328125 201.792969 241.320312 195.640625 240.90625 C 189.492188 240.488281 184.007812 236.667969 181.515625 231.015625 L 162.070312 186.972656 L 131.820312 258.109375 C 129.160156 264.421875 123.011719 268.246094 116.613281 268.246094 Z M 116.613281 268.246094 "/></g><path style=" stroke:none;fill-rule:nonzero;fill:#181d2e;fill-opacity:1;" d="M 277 230.351562 C 277 230.921875 276.96875 231.492188 276.914062 232.0625 C 276.859375 232.632812 276.773438 233.195312 276.664062 233.757812 C 276.550781 234.316406 276.414062 234.871094 276.246094 235.417969 C 276.082031 235.964844 275.886719 236.5 275.667969 237.03125 C 275.453125 237.558594 275.207031 238.074219 274.9375 238.578125 C 274.667969 239.082031 274.375 239.570312 274.058594 240.046875 C 273.738281 240.523438 273.398438 240.980469 273.035156 241.421875 C 272.675781 241.863281 272.292969 242.289062 271.886719 242.691406 C 271.484375 243.09375 271.058594 243.480469 270.617188 243.839844 C 270.175781 244.203125 269.71875 244.542969 269.242188 244.863281 C 268.765625 245.179688 268.277344 245.472656 267.773438 245.742188 C 267.269531 246.011719 266.753906 246.253906 266.226562 246.472656 C 265.699219 246.691406 265.160156 246.886719 264.613281 247.050781 C 264.066406 247.21875 263.511719 247.355469 262.953125 247.46875 C 262.390625 247.578125 261.828125 247.664062 261.257812 247.71875 C 260.6875 247.773438 260.117188 247.804688 259.546875 247.804688 C 258.976562 247.804688 258.40625 247.773438 257.835938 247.71875 C 257.269531 247.664062 256.703125 247.578125 256.140625 247.46875 C 255.582031 247.355469 255.027344 247.21875 254.480469 247.050781 C 253.933594 246.886719 253.398438 246.691406 252.867188 246.472656 C 252.339844 246.253906 251.824219 246.011719 251.320312 245.742188 C 250.816406 245.472656 250.328125 245.179688 249.851562 244.863281 C 249.375 244.542969 248.917969 244.203125 248.476562 243.839844 C 248.035156 243.480469 247.609375 243.09375 247.207031 242.691406 C 246.804688 242.289062 246.417969 241.863281 246.058594 241.421875 C 245.695312 240.980469 245.355469 240.523438 245.035156 240.046875 C 244.71875 239.570312 244.425781 239.082031 244.15625 238.578125 C 243.886719 238.074219 243.644531 237.558594 243.425781 237.03125 C 243.207031 236.5 243.011719 235.964844 242.847656 235.417969 C 242.679688 234.871094 242.542969 234.316406 242.429688 233.757812 C 242.320312 233.195312 242.234375 232.632812 242.179688 232.0625 C 242.125 231.492188 242.097656 230.921875 242.097656 230.351562 C 242.097656 229.78125 242.125 229.210938 242.179688 228.640625 C 242.234375 228.070312 242.320312 227.507812 242.429688 226.945312 C 242.542969 226.386719 242.679688 225.832031 242.847656 225.285156 C 243.011719 224.738281 243.207031 224.203125 243.425781 223.671875 C 243.644531 223.144531 243.886719 222.628906 244.15625 222.125 C 244.425781 221.621094 244.71875 221.132812 245.035156 220.65625 C 245.355469 220.179688 245.695312 219.722656 246.058594 219.28125 C 246.417969 218.839844 246.804688 218.414062 247.207031 218.011719 C 247.609375 217.609375 248.035156 217.222656 248.476562 216.863281 C 248.917969 216.5 249.375 216.160156 249.851562 215.839844 C 250.328125 215.523438 250.816406 215.230469 251.320312 214.960938 C 251.824219 214.691406 252.339844 214.449219 252.867188 214.230469 C 253.398438 214.011719 253.933594 213.816406 254.480469 213.652344 C 255.027344 213.484375 255.582031 213.347656 256.140625 213.234375 C 256.703125 213.125 257.269531 213.039062 257.835938 212.984375 C 258.40625 212.929688 258.976562 212.898438 259.546875 212.898438 C 260.117188 212.898438 260.6875 212.929688 261.257812 212.984375 C 261.828125 213.039062 262.390625 213.125 262.953125 213.234375 C 263.511719 213.347656 264.066406 213.484375 264.613281 213.652344 C 265.160156 213.816406 265.699219 214.011719 266.226562 214.230469 C 266.753906 214.449219 267.269531 214.691406 267.773438 214.960938 C 268.277344 215.230469 268.765625 215.523438 269.242188 215.839844 C 269.71875 216.160156 270.175781 216.5 270.617188 216.863281 C 271.058594 217.222656 271.484375 217.609375 271.886719 218.011719 C 272.292969 218.414062 272.675781 218.839844 273.035156 219.28125 C 273.398438 219.722656 273.738281 220.179688 274.058594 220.65625 C 274.375 221.132812 274.667969 221.621094 274.9375 222.125 C 275.207031 222.628906 275.453125 223.144531 275.667969 223.671875 C 275.886719 224.203125 276.082031 224.738281 276.246094 225.285156 C 276.414062 225.832031 276.550781 226.386719 276.664062 226.945312 C 276.773438 227.507812 276.859375 228.070312 276.914062 228.640625 C 276.96875 229.210938 277 229.78125 277 230.351562 Z M 277 230.351562 "/></g></svg>